<svg width="19" height="21" viewBox="0 0 19 21" fill="none" xmlns="http://www.w3.org/2000/svg">
<path d="M0.371094 18.8554C0.166139 18.8554 0 19.0391 0 19.2656C0 19.4921 0.166139 19.6758 0.371094 19.6758H18.6289C18.8338 19.6758 19 19.4921 19 19.2656C19 19.0391 18.8338 18.8554 18.6289 18.8554H17.9164V16.6396C17.9164 16.4131 17.7502 16.2295 17.5453 16.2295C17.3404 16.2295 17.1742 16.4131 17.1742 16.6396V18.8554H7.0218V12.7585C7.0218 12.532 6.85566 12.3484 6.6507 12.3484H3.37974C3.17478 12.3484 3.00864 12.532 3.00864 12.7585V18.8554H1.82578V10.9967C1.95307 11.0206 2.08317 11.0317 2.21224 11.0307C2.93431 11.0252 3.62065 10.6141 4.02266 9.9519C4.42763 10.6189 5.12106 11.0311 5.84844 11.0311C6.57534 11.0311 7.26995 10.619 7.67422 9.9519C8.08049 10.6183 8.77158 11.0311 9.5 11.0311C10.2273 11.0311 10.921 10.6189 11.3258 9.9519C11.7123 10.5888 12.3634 10.9959 13.0572 11.0285C13.8173 11.0642 14.5537 10.6497 14.9773 9.9519C15.4556 10.7398 16.3272 11.1555 17.1742 10.9967V13.0373C17.1742 13.2638 17.3404 13.4475 17.5453 13.4475C17.7502 13.4475 17.9164 13.2638 17.9164 13.0373V10.6951C18.5643 10.2723 19 9.49305 19 8.60301V6.4622C19 5.80046 18.5491 5.21775 17.9569 5.11644L15.5541 1.83011C15.3191 1.50858 14.9698 1.32422 14.5959 1.32422H4.40767C4.03056 1.32422 3.67943 1.51117 3.44431 1.83708L1.08055 5.1141C0.492182 5.20807 0.010502 5.7804 0 6.43813V7.82909V7.83266V8.60301C0 9.49305 0.435775 10.2723 1.08359 10.6951V18.8554H0.371094ZM3.75083 13.1687H6.27961V18.8554H3.75083V13.1687ZM14.6062 8.60285C14.6062 9.4894 13.9537 10.2107 13.1516 10.2107C12.3495 10.2107 11.6969 9.4894 11.6969 8.60285V8.24282H14.6062V8.60285ZM14.6062 7.4225H11.6969V5.9208H14.6062V7.4225ZM18.2578 8.60301C18.2578 9.47829 17.5947 10.2107 16.8031 10.2107C16.001 10.2107 15.3484 9.4894 15.3484 8.60285V8.24282H18.2578V8.60301ZM18.2578 6.4622V7.4225H15.3484V5.9208H17.768C18.038 5.9208 18.2578 6.16365 18.2578 6.4622ZM14.5958 2.14453C14.7445 2.14453 14.8834 2.21783 14.9768 2.34563L16.991 5.10044H15.1979L13.7425 2.14453H14.5958ZM12.8975 2.14453L14.3529 5.10044H11.6517L11.3031 2.14453H12.8975ZM8.4118 2.14453H10.5546L10.9032 5.10044H8.09229L8.4118 2.14453ZM8.04531 5.9208H10.9547V7.4225H8.04531V5.9208ZM8.04531 8.24282H10.9547V8.60285C10.9547 9.4894 10.3021 10.2107 9.5 10.2107C8.69788 10.2107 8.04531 9.4894 8.04531 8.60285V8.24282ZM7.30312 8.60285C7.30312 9.4894 6.65056 10.2107 5.84844 10.2107C5.04632 10.2107 4.39375 9.4894 4.39375 8.60285V8.60281C4.39375 8.59924 4.39371 8.59567 4.39364 8.5921L4.38521 8.24282H7.30312V8.60285ZM7.30312 7.4225H4.3752V5.9208H7.30312V7.4225ZM6.10149 2.14453H7.66435L7.34484 5.10044H4.63155L6.10149 2.14453ZM4.02462 2.34846C4.1181 2.21889 4.25771 2.14453 4.40767 2.14453H5.25461L3.78464 5.10044H2.03961L4.02462 2.34846ZM0.764305 6.45261C0.768981 6.15935 0.988668 5.92076 1.25407 5.92076H1.26914H3.63301V7.42246H0.764305V6.45261ZM0.742188 8.60301V8.24282H3.64273L3.65149 8.60589C3.65004 9.47837 2.98812 10.2107 2.19688 10.2107C1.40526 10.2107 0.742188 9.47829 0.742188 8.60301Z" fill="#777777"/>
<path d="M10.8813 13.0712H8.86838C8.66343 13.0712 8.49729 13.2549 8.49729 13.4814V16.2022H8.40741C8.20245 16.2022 8.03632 16.3859 8.03632 16.6124C8.03632 16.8389 8.20245 17.0226 8.40741 17.0226H11.3423C11.5472 17.0226 11.7134 16.8389 11.7134 16.6124C11.7134 16.3859 11.5472 16.2022 11.3423 16.2022H11.2524V13.4814C11.2524 13.2549 11.0862 13.0712 10.8813 13.0712ZM10.5102 16.2022H9.23948V13.8915H10.5102V16.2022Z" fill="#777777"/>
<path d="M15.4762 13.0712H13.4633C13.2584 13.0712 13.0922 13.2549 13.0922 13.4814V16.2022H13.0023C12.7974 16.2022 12.6312 16.3859 12.6312 16.6124C12.6312 16.8389 12.7974 17.0226 13.0023 17.0226H15.9372C16.1421 17.0226 16.3083 16.8389 16.3083 16.6124C16.3083 16.3859 16.1421 16.2022 15.9372 16.2022H15.8473V13.4814C15.8473 13.2549 15.6811 13.0712 15.4762 13.0712ZM15.1051 16.2022H13.8344V13.8915H15.1051V16.2022Z" fill="#777777"/>
<path d="M4.17275 16.1868C4.23866 16.3896 4.4419 16.5042 4.62938 16.4411C4.83526 16.3718 4.94733 16.1121 4.86428 15.8919C4.68386 15.4129 4.01496 15.7011 4.17275 16.1868Z" fill="#777777"/>
<path d="M17.3247 14.4582C17.1652 14.589 17.128 14.8423 17.2414 15.0223C17.3551 15.2028 17.586 15.2496 17.7513 15.1282C17.9196 15.0047 17.9656 14.7451 17.8537 14.5598C17.7393 14.3663 17.4913 14.3215 17.3247 14.4582Z" fill="#777777"/>
</svg>
