<?xml version="1.0" encoding="iso-8859-1"?>
<!-- Generator: Adobe Illustrator 19.0.0, SVG Export Plug-In . SVG Version: 6.00 Build 0)  -->
<svg version="1.1" id="Capa_1" xmlns="http://www.w3.org/2000/svg" xmlns:xlink="http://www.w3.org/1999/xlink" x="0px" y="0px"
	 viewBox="0 0 512 512" style="enable-background:new 0 0 512 512;" xml:space="preserve">
<g>
	<g>
		<path d="M496.994,180.992h-60.999c-8.291,0-15,6.709-15,15c0,8.291,6.709,15,15,15h60.999c8.291,0,15-6.709,15-15
			C511.994,187.701,505.285,180.992,496.994,180.992z"/>
	</g>
</g>
<g>
	<g>
		<path d="M510.412,99.284c-3.706-7.412-12.715-10.4-20.127-6.709l-60.999,30c-7.412,3.706-10.415,12.715-6.709,20.127
			c3.686,7.349,12.64,10.426,20.127,6.709l60.999-30C511.115,115.705,514.118,106.696,510.412,99.284z"/>
	</g>
</g>
<g>
	<g>
		<path d="M503.703,272.573l-60.999-30c-7.412-3.662-16.392-0.718-20.127,6.709c-3.706,7.412-0.703,16.421,6.709,20.127l60.999,30
			c7.487,3.717,16.441,0.641,20.127-6.709C514.118,285.288,511.115,276.279,503.703,272.573z"/>
	</g>
</g>
<g>
	<g>
		<path d="M360.996,30.994c-16.569,0-30,13.431-30,30V360.99c0,16.567,13.431,30,30,30s30-13.433,30-30V60.994
			C390.995,44.424,377.565,30.994,360.996,30.994z"/>
	</g>
</g>
<g>
	<g>
		<path d="M180.538,348.266c-1.139,7.15-7.071,12.724-14.54,12.724h-18.369c-1.293,0-2.448,0.428-3.644,0.734l-2.443-26.455
			l-12.839-4.279H49.844l12.502,115.927c6.133,24.48,30.909,38.712,54.564,32.725c24.067-6.006,38.76-30.483,33.135-52.309
			l-3.375-36.535c0.333,0.022,0.617,0.192,0.958,0.192h18.37c20.693,0,37.987-14.114,43.219-33.164L180.538,348.266z"/>
	</g>
</g>
<g>
	<g>
		<polygon points="150.998,115.186 150.998,306.797 300.996,356.795 300.996,65.189 		"/>
	</g>
</g>
<g>
	<g>
		<path d="M44.999,120.993C20.186,120.993,0,141.179,0,165.992v89.999c0,24.814,20.186,44.999,44.999,44.999h75.999V120.993H44.999z
			"/>
	</g>
</g>
<g>
</g>
<g>
</g>
<g>
</g>
<g>
</g>
<g>
</g>
<g>
</g>
<g>
</g>
<g>
</g>
<g>
</g>
<g>
</g>
<g>
</g>
<g>
</g>
<g>
</g>
<g>
</g>
<g>
</g>
</svg>
