<svg id="Layer_1" enable-background="new 0 0 26 26" height="512" viewBox="0 0 26 26" width="512" xmlns="http://www.w3.org/2000/svg"><g id="_x39_22"><path d="m16.2250404 1.480011h-8.0400381c-.8617492 0-1.6927447.3081874-2.3800054.9699707l-3.4300534 3.3800049c-.614149.6140151-1.0100099 1.4616327-1.0100099 2.4199829v10.8599854c0 1.8900146 1.5400392 3.4300537 3.4300537 3.4300537h9.3399658c-.0100098-.0100098-.0100098-.0200195-.0200195-.0300293-1.5-2.7000122-1.3199463-5.8300171-1.2199707-6.7799683.0700684-.8400269.5600586-1.5800171 1.3100586-1.9800415l4.0500479-2.1900024c.369873-.2000122.7799072-.2999878 1.1899414-.2999878.0700684 0 .1499023 0 .2199707.0100098v-6.3599854c.0000003-1.8900147-1.5400387-3.4299927-3.4399411-3.4299927zm-6.9300527 14.8899536h-2.9599614c-.5500488 0-1-.4499512-1-1 0-.5599976.4499512-1 1-1h2.9599614c.5599365 0 1 .4400024 1 1 0 .5500488-.4400635 1-1 1zm2.9700928-4.5899658h-5.9300542c-.5500488 0-1-.4500122-1-1 0-.5599976.4499512-1 1-1h5.9300542c.5499268 0 1 .4400024 1 1 0 .5499878-.4500733 1-1 1z"/><path d="m15.6249437 15.559967c-.1499023.0800171-.25.2200317-.2600098.3900146-.0898438.8300171-.2299805 3.4500122.9799795 5.6300049.1000977.1799927.210083.3599854.3300781.5299683.7299805 1.0600586 1.8200684 1.9500122 3.4499512 2.4100342 5.1900635-1.4700317 4.5800781-7.2999878 4.380127-8.5900269-.0200195-.1599731-.1201172-.289978-.2600098-.3699951l-4.0700684-2.2000122c-.1499023-.0799561-.3399658-.0799561-.4899902 0l-.0200195.0100098c-.1010532.0547791-4.3036537 2.332901-4.0400381 2.1900024z"/></g></svg>