<svg id="Capa_1" enable-background="new 0 0 512 512" height="512" viewBox="0 0 512 512" width="512" xmlns="http://www.w3.org/2000/svg"><g><path d="m173.461 178.037c36.044.267 65.348-28.871 65.348-64.854v-48.327c0-35.819-29.037-64.856-64.856-64.856-35.819 0-64.856 29.037-64.856 64.856v47.513c0 35.761 28.604 65.403 64.364 65.668z"/><path d="m351.237 329.625c43.365.321 78.619-34.735 78.619-78.025v-58.142c0-43.093-34.934-78.027-78.027-78.027-43.093 0-78.027 34.934-78.027 78.027v57.163c0 43.023 34.413 78.685 77.435 79.004z"/><path d="m94.959 416.398v-65.527h23.611l-55.479-81.837-55.478 81.838h23.611v65.527c0 52.799 42.802 95.602 95.602 95.602h84.979v-63.734h-84.979c-17.6-.001-31.867-14.269-31.867-31.869z"/><path d="m234.406 329.627c8.988-6.535 18.641-12.09 28.882-16.612-12.659-18.2-19.486-39.806-19.486-62.395v-57.163c0-2.353.082-4.693.231-7.021-2.198-.99-4.44-1.898-6.722-2.724-16.809 15.114-39.026 24.326-63.357 24.326-.236 0-.477-.001-.714-.003-23.285-.173-45.233-8.778-62.449-24.35-18.581 6.701-34.483 18.999-45.687 34.853l75.308 111.087h93.994z"/><path d="m418.538 336.584c-18.952 14.937-42.206 23.043-66.709 23.043-.272 0-.549-.001-.814-.003-24.096-.179-46.937-8.293-65.62-23.087-37.904 13.041-67.71 43.457-79.941 81.729h36.351v93.734h262.582v-54.904c0-55.824-35.888-103.26-85.849-120.512z"/></g></svg>