<svg fill="none" height="512" viewBox="0 0 24 24" width="512" xmlns="http://www.w3.org/2000/svg"><g fill="rgb(0,0,0)"><path d="m10 12c2.2091 0 4-1.7909 4-4 0-2.20914-1.7909-4-4-4-2.20914 0-4 1.79086-4 4 0 2.2091 1.79086 4 4 4z"/><path d="m10.35 14.01c-2.73-.1-8.35 1.26-8.35 3.99v2h9.54c-2.47-2.76-1.23-5.89-1.19-5.99z"/><path d="m19.43 18.02c.36-.59.57-1.28.57-2.02 0-2.21-1.79-4-4-4s-4 1.79-4 4 1.79 4 4 4c.74 0 1.43-.22 2.02-.57l2.57 2.57 1.41-1.41zm-3.43-.02c-1.1 0-2-.9-2-2s.9-2 2-2 2 .9 2 2-.9 2-2 2z"/></g></svg>