<svg width="21" height="22" viewBox="0 0 21 22" fill="none" xmlns="http://www.w3.org/2000/svg">
<g clip-path="url(#clip0_1416_1616)">
<path d="M17.9375 6.14099H3.06251C1.37374 6.14099 0 7.51473 0 9.20346V17.9535C0 19.6422 1.37374 21.016 3.06251 21.016H17.9375C19.6263 21.016 21 19.6422 21 17.9535V9.20346C21 7.51473 19.6263 6.14099 17.9375 6.14099ZM20.125 17.9535C20.125 19.1592 19.1441 20.141 17.9375 20.141H3.06251C1.85588 20.141 0.875027 19.1592 0.875027 17.9535V9.20346C0.875027 7.99773 1.85592 7.01598 3.06251 7.01598H17.9375C19.1442 7.01598 20.125 7.99773 20.125 9.20346V17.9535Z" fill="#777777"/>
<path d="M17.0625 12.266C16.3389 12.266 15.75 12.8549 15.75 13.5785C15.75 14.3021 16.3389 14.891 17.0625 14.891C17.7861 14.891 18.375 14.3021 18.375 13.5785C18.375 12.8549 17.7861 12.266 17.0625 12.266ZM17.0625 14.016C16.8219 14.016 16.625 13.82 16.625 13.5785C16.625 13.337 16.8219 13.141 17.0625 13.141C17.3031 13.141 17.5 13.337 17.5 13.5785C17.5 13.82 17.3031 14.016 17.0625 14.016Z" fill="#777777"/>
<path d="M20.5625 10.516H17.0625C15.3738 10.516 14 11.8897 14 13.5785C14 15.2672 15.3737 16.641 17.0625 16.641H20.5625C20.804 16.641 21 16.445 21 16.2035V10.9535C21 10.712 20.804 10.516 20.5625 10.516ZM20.125 15.766H17.0625C15.8559 15.766 14.875 14.7842 14.875 13.5785C14.875 12.3728 15.8559 11.391 17.0625 11.391H20.125V15.766Z" fill="#777777"/>
<path d="M17.8911 6.38252L16.0387 2.67774C15.6651 1.93048 15.0202 1.38013 14.224 1.12813C13.4277 0.876993 12.5842 0.955743 11.8475 1.35126L2.85511 6.19352C2.64248 6.30726 2.56287 6.57328 2.67747 6.78591C2.79211 6.99853 3.05809 7.07815 3.26986 6.96355L12.264 2.12301C12.789 1.83951 13.3936 1.78262 13.9606 1.96288C14.5293 2.14224 14.9896 2.53599 15.2565 3.06977L17.1089 6.77451C17.1858 6.92762 17.3399 7.01601 17.5 7.01601C17.5656 7.01601 17.6321 7.00112 17.6951 6.96962C17.9112 6.86113 17.9987 6.59863 17.8911 6.38252Z" fill="#777777"/>
<path d="M16.1359 2.87198C16.0204 2.65849 15.7544 2.57974 15.5426 2.69348L9.04224 6.19347C8.82962 6.30811 8.75001 6.57323 8.8646 6.78586C8.94335 6.93286 9.09384 7.01599 9.24962 7.01599C9.31963 7.01599 9.39137 6.99938 9.45785 6.96435L15.9582 3.46437C16.1708 3.34973 16.2505 3.08461 16.1359 2.87198Z" fill="#777777"/>
<path d="M7.875 3.51599H4.81249C2.15951 3.51599 0 5.6746 0 8.32848V9.20346C0 9.44496 0.196014 9.64098 0.437514 9.64098C0.679014 9.64098 0.875027 9.44496 0.875027 9.20346V8.32848C0.875027 6.1576 2.64165 4.39098 4.81253 4.39098H7.875C8.1165 4.39098 8.31251 4.19496 8.31251 3.95346C8.31251 3.71196 8.1165 3.51599 7.875 3.51599Z" fill="#777777"/>
<path d="M16.1875 3.51599C15.946 3.51599 15.75 3.712 15.75 3.9535C15.75 4.195 15.946 4.39102 16.1875 4.39102C18.3584 4.39102 20.125 6.15764 20.125 8.32852V9.20351C20.125 9.445 20.321 9.64102 20.5625 9.64102C20.804 9.64102 21 9.445 21 9.20351V8.32852C21 5.6746 18.8405 3.51599 16.1875 3.51599Z" fill="#777777"/>
</g>
<defs>
<clipPath id="clip0_1416_1616">
<rect width="21" height="21" fill="white" transform="translate(0 0.5)"/>
</clipPath>
</defs>
</svg>
