<?xml version="1.0" encoding="UTF-8"?>
<svg xmlns="http://www.w3.org/2000/svg" viewBox="0 0 64 64" width="512" height="512"><g id="Profit"><path d="M12,56.85712a1.42233,1.42233,0,0,0,0-2.71576Z"/><path d="M22,53A11,11,0,1,0,11,64,11.01245,11.01245,0,0,0,22,53Zm-7.001,2.49854A3.47771,3.47771,0,0,1,12,58.9151V59a1,1,0,0,1-2,0v-.062a3.67685,3.67685,0,0,1-2.19873-1.01026,2.79677,2.79677,0,0,1-.79932-1.977A1.00019,1.00019,0,0,1,9,56.04736v-.00048a.84147.84147,0,0,0,.25537.50634A1.57572,1.57572,0,0,0,10,56.90668V53.91681a3.44494,3.44494,0,0,1,0-6.83191V47a1,1,0,0,1,2,0v.06232a3.67763,3.67763,0,0,1,2.19873,1.01,2.79677,2.79677,0,0,1,.79932,1.977A1.03218,1.03218,0,0,1,13.95068,51a1.00026,1.00026,0,0,1-.95117-1.02246.82164.82164,0,0,0-.25488-.53076A1.57287,1.57287,0,0,0,12,49.0943v2.98889A3.47918,3.47918,0,0,1,14.999,55.49854Z"/><path d="M9.001,50.50049A1.42263,1.42263,0,0,0,10,51.85864V49.14288A1.4211,1.4211,0,0,0,9.001,50.50049Z"/><path d="M63,57H23.36a12.19441,12.19441,0,0,1-.83,2A13.04964,13.04964,0,0,1,17.92,64H63a1.003,1.003,0,0,0,1-1V58A1.003,1.003,0,0,0,63,57Z"/><path d="M16,41V32a1.003,1.003,0,0,0-1-1H7a1.003,1.003,0,0,0-1,1v9a13,13,0,0,1,10,0Z"/><path d="M30,55V27a1.003,1.003,0,0,0-1-1H21a1.003,1.003,0,0,0-1,1V43.63A12.95993,12.95993,0,0,1,24,53a13.16474,13.16474,0,0,1-.15,2Z"/><path d="M35,20a1.003,1.003,0,0,0-1,1V55H44V21a1.003,1.003,0,0,0-1-1Z"/><path d="M48,15V55H58V15a1.003,1.003,0,0,0-1-1H49A1.003,1.003,0,0,0,48,15Z"/><path d="M10.999,25l.04834-.001C28.96722,24.14539,46.51917,8.67279,52,3.40405V10a1,1,0,0,0,2,0V1L53.99768.9884A1.0231,1.0231,0,0,0,53,0H44a1,1,0,0,0,0,2h6.55377C45.165,7.1189,27.9201,22.1933,10.95264,23.001A1.00007,1.00007,0,0,0,10.999,25Z"/></g></svg>
