<svg width="512" height="512" viewBox="0 0 512 512" fill="none" xmlns="http://www.w3.org/2000/svg">
<g clip-path="url(#clip0_305_4129)">
<path d="M384 42.6667C431.061 42.6667 469.333 80.9387 469.333 128V384C469.333 431.061 431.061 469.333 384 469.333H128C80.9387 469.333 42.6667 431.061 42.6667 384V128C42.6667 80.9387 80.9387 42.6667 128 42.6667H384ZM384 0H128C57.3013 0 0 57.3013 0 128V384C0 454.699 57.3013 512 128 512H384C454.699 512 512 454.699 512 384V128C512 57.3013 454.699 0 384 0Z" fill="black"/>
<g clip-path="url(#clip1_305_4129)">
<path d="M360.817 267.344C346.419 262.127 330.447 263.287 316.942 270.518L294.926 280.421C293.148 270.282 285.36 262.662 275.749 262.37C275.692 262.368 242.74 261.996 242.74 261.996C216.364 254.761 199.226 264.058 189.45 273.22C187.45 275.093 185.692 277.022 184.145 278.925C181.507 276.084 176.85 275.325 173.454 277.192L143.541 293.635C139.662 295.768 137.974 300.447 139.601 304.56L168.834 378.459C170.755 383.315 176.658 385.461 181.264 382.929L211.177 366.486C213.981 364.945 215.632 362.073 215.722 359.047H260.367C267.649 359.047 274.838 357.134 281.158 353.515C281.158 353.515 365.122 305.351 365.596 304.92C377.354 294.223 377.717 273.468 360.817 267.344C367.559 269.787 346.419 262.127 360.817 267.344ZM181.532 362.72L158.817 305.298L173.185 297.401L195.9 354.823L181.532 362.72ZM354.36 291.334L272.398 338.271C268.74 340.366 264.579 341.473 260.365 341.473H209.543L192.479 298.335C193.941 295.357 196.82 290.414 201.496 286.033C211.073 277.059 223.695 274.762 239.016 279.207C239.782 279.429 240.575 279.546 241.372 279.556L275.246 279.937C276.111 280.011 277.707 281.934 277.707 284.849C277.707 287.849 276.058 289.763 275.196 289.763H241.914V307.336H275.196C279.319 307.336 283.156 305.942 286.35 303.553L324.461 286.41C324.663 286.319 324.86 286.221 325.055 286.115C334.197 281.144 345.044 280.323 354.812 283.863C358.677 285.265 355.885 289.786 354.36 291.334Z" fill="black"/>
<path d="M301.472 253.624C266.565 253.624 238.165 225.222 238.165 190.312C238.165 155.402 266.564 127 301.472 127C336.38 127 364.779 155.402 364.779 190.312C364.779 225.222 336.38 253.624 301.472 253.624ZM301.472 144.574C276.27 144.574 255.767 165.091 255.767 190.312C255.767 215.532 276.271 236.049 301.472 236.049C326.675 236.049 347.178 215.531 347.178 190.312C347.178 165.092 326.674 144.574 301.472 144.574Z" fill="black"/>
<path d="M305.56 183.149C298.561 180.275 298.02 179.04 298.02 177.609C298.02 176.694 298.474 174.568 302.678 174.568C306.523 174.568 311.315 176.727 314.695 178.952L319.396 166.629C316.039 164.492 311.96 162.656 308.147 162.069V154.056H295.612V162.849C288.165 165.196 283.577 171.149 283.577 178.559C283.577 188.373 291.428 192.755 299.098 195.742C305.225 198.207 305.739 200.094 305.739 201.669C305.739 204.093 303.505 205.658 300.049 205.658C295.542 205.658 290.302 203.059 286.633 200.214L282.109 212.735C285.85 215.635 290.181 217.549 295.053 218.264V226.568H307.666V217.529C315.345 215.083 320.26 208.721 320.26 201.115C320.26 190.467 312.405 185.921 305.56 183.149Z" fill="black"/>
</g>
</g>
<defs>
<clipPath id="clip0_305_4129">
<rect width="512" height="512" fill="white"/>
</clipPath>
<clipPath id="clip1_305_4129">
<rect width="257" height="257" fill="white" transform="translate(128 127)"/>
</clipPath>
</defs>
</svg>
