<svg width="512" height="512" viewBox="0 0 512 512" fill="none" xmlns="http://www.w3.org/2000/svg">
<g clip-path="url(#clip0_305_4148)">
<path d="M128 42.6667C80.9387 42.6667 42.6667 80.9387 42.6667 128V384C42.6667 431.061 80.9387 469.333 128 469.333H384C431.061 469.333 469.333 431.061 469.333 384V128C469.333 80.9387 431.061 42.6667 384 42.6667H128ZM128 0H384C454.699 0 512 57.3013 512 128V384C512 454.699 454.699 512 384 512H128C57.3013 512 -1.52588e-05 454.699 -1.52588e-05 384V128C-1.52588e-05 57.3013 57.3013 0 128 0Z" fill="black"/>
<g clip-path="url(#clip1_305_4148)">
<path d="M151.183 267.344C165.581 262.127 181.553 263.287 195.058 270.518L217.074 280.421C218.852 270.282 226.64 262.662 236.251 262.37C236.308 262.368 269.261 261.996 269.261 261.996C295.636 254.761 312.774 264.058 322.55 273.22C324.55 275.093 326.308 277.022 327.856 278.925C330.494 276.084 335.15 275.325 338.546 277.192L368.459 293.635C372.338 295.768 374.027 300.447 372.399 304.56L343.166 378.459C341.245 383.315 335.342 385.461 330.736 382.929L300.823 366.486C298.019 364.945 296.369 362.073 296.278 359.047H251.634C244.351 359.047 237.162 357.134 230.842 353.515C230.842 353.515 146.878 305.351 146.404 304.92C134.646 294.223 134.283 273.468 151.183 267.344C144.442 269.787 165.581 262.127 151.183 267.344ZM330.468 362.72L353.183 305.298L338.815 297.401L316.101 354.823L330.468 362.72ZM157.64 291.334L239.602 338.271C243.26 340.366 247.421 341.473 251.635 341.473H302.457L319.521 298.335C318.059 295.357 315.18 290.414 310.504 286.033C300.928 277.059 288.305 274.762 272.984 279.207C272.218 279.429 271.425 279.546 270.628 279.556L236.755 279.937C235.89 280.011 234.293 281.934 234.293 284.849C234.293 287.849 235.942 289.763 236.804 289.763H270.086V307.336H236.804C232.681 307.336 228.844 305.942 225.65 303.553L187.54 286.41C187.337 286.319 187.14 286.221 186.945 286.115C177.803 281.144 166.956 280.323 157.188 283.863C153.323 285.265 156.115 289.786 157.64 291.334Z" fill="black"/>
<path d="M210.528 253.624C245.435 253.624 273.835 225.222 273.835 190.312C273.835 155.402 245.436 127 210.528 127C175.62 127 147.221 155.402 147.221 190.312C147.221 225.222 175.62 253.624 210.528 253.624ZM210.528 144.574C235.73 144.574 256.233 165.091 256.233 190.312C256.233 215.532 235.729 236.049 210.528 236.049C185.325 236.049 164.822 215.531 164.822 190.312C164.822 165.092 185.326 144.574 210.528 144.574Z" fill="black"/>
<path d="M206.44 183.149C213.439 180.275 213.98 179.04 213.98 177.609C213.98 176.694 213.526 174.568 209.322 174.568C205.477 174.568 200.685 176.727 197.305 178.952L192.604 166.629C195.961 164.492 200.04 162.656 203.853 162.069V154.056H216.388V162.849C223.835 165.196 228.423 171.149 228.423 178.559C228.423 188.373 220.572 192.755 212.902 195.742C206.775 198.207 206.261 200.094 206.261 201.669C206.261 204.093 208.495 205.658 211.951 205.658C216.458 205.658 221.698 203.059 225.367 200.214L229.891 212.735C226.15 215.635 221.819 217.549 216.947 218.264V226.568H204.334V217.529C196.655 215.083 191.74 208.721 191.74 201.115C191.74 190.467 199.595 185.921 206.44 183.149Z" fill="black"/>
</g>
</g>
<defs>
<clipPath id="clip0_305_4148">
<rect width="512" height="512" fill="white" transform="matrix(-1 0 0 1 512 0)"/>
</clipPath>
<clipPath id="clip1_305_4148">
<rect width="257" height="257" fill="white" transform="matrix(-1 0 0 1 384 127)"/>
</clipPath>
</defs>
</svg>
