<svg width="33" height="33" viewBox="0 0 33 33" fill="none" xmlns="http://www.w3.org/2000/svg">
<g filter="url(#filter0_d_1268_2309)">
<path d="M15.7676 19.4336H13.0332C12.6287 19.4336 12.3008 19.1057 12.3008 18.7012V15.9668C12.3008 15.5623 12.6287 15.2344 13.0332 15.2344H15.7676C16.1721 15.2344 16.5 15.5623 16.5 15.9668V18.7012C16.5 19.1057 16.1721 19.4336 15.7676 19.4336Z" fill="#003156"/>
<path d="M13.8145 25H11.4707C11.1256 25 10.8272 24.759 10.7547 24.4216L8.80154 15.3396C8.75501 15.1232 8.80877 14.8975 8.94783 14.7253C9.08689 14.5532 9.29632 14.4531 9.51761 14.4531H13.8145C14.219 14.4531 14.5469 14.7811 14.5469 15.1855V24.2676C14.5469 24.6721 14.219 25 13.8145 25Z" fill="#BEBCDD"/>
<path d="M7.95508 7.03125H6.19727C4.98584 7.03125 4 8.01709 4 9.22852V12.5488C4 13.7603 4.98584 14.7461 6.19727 14.7461H7.95508C8.35938 14.7461 8.6875 14.418 8.6875 14.0137V7.76367C8.6875 7.35938 8.35938 7.03125 7.95508 7.03125Z" fill="#E2DFF4"/>
<path d="M8.6875 10.8887V14.0137C8.6875 14.418 8.35938 14.7461 7.95508 14.7461H6.19727C4.98584 14.7461 4 13.7603 4 12.5488V10.8887H8.6875Z" fill="#BEBCDD"/>
<path d="M28.5879 1.2456C28.3354 1.12305 28.0356 1.15527 27.8149 1.32861L27.2607 1.76367C24.2202 4.15283 20.416 5.46875 16.5488 5.46875C16.1445 5.46875 15.8164 5.79687 15.8164 6.20117V15.5762C15.8164 15.9805 16.1445 16.3086 16.5488 16.3086C20.416 16.3086 24.2202 17.6245 27.2607 20.0137L27.8149 20.4487C27.9468 20.5522 28.1064 20.6055 28.2676 20.6055C28.3765 20.6055 28.4858 20.5811 28.5879 20.5317C28.8398 20.4092 29 20.1533 29 19.873V1.9043C29 1.62402 28.8398 1.36816 28.5879 1.2456Z" fill="#E2DFF4"/>
<path d="M29 10.8887V19.873C29 20.1533 28.8398 20.4092 28.5879 20.5317C28.4858 20.5811 28.3765 20.6055 28.2676 20.6055C28.1064 20.6055 27.9468 20.5522 27.8149 20.4487L27.2607 20.0137C24.2202 17.6245 20.416 16.3086 16.5488 16.3086C16.1445 16.3086 15.8164 15.9805 15.8164 15.5762V10.8887H29Z" fill="#BEBCDD"/>
<path d="M29 0.732422V21.0449C29 21.4492 28.6719 21.7773 28.2676 21.7773C27.8633 21.7773 27.5352 21.4492 27.5352 21.0449V0.732422C27.5352 0.328125 27.8633 0 28.2676 0C28.6719 0 29 0.328125 29 0.732422Z" fill="#FF3053"/>
<path d="M29 10.8887V21.0449C29 21.4492 28.6719 21.7773 28.2676 21.7773C27.8633 21.7773 27.5352 21.4492 27.5352 21.0449V10.8887H29Z" fill="#B70042"/>
<path d="M16.5488 5.07812H10.1523C8.53711 5.07812 7.22266 6.39258 7.22266 8.00781V13.7695C7.22266 15.3848 8.53711 16.6992 10.1523 16.6992H16.5488C16.9531 16.6992 17.2812 16.3711 17.2812 15.9668V5.81055C17.2812 5.40625 16.9531 5.07812 16.5488 5.07812Z" fill="#FF3053"/>
<path d="M17.2812 10.8887V15.9668C17.2812 16.3711 16.9531 16.6992 16.5488 16.6992H10.1523C8.53711 16.6992 7.22266 15.3848 7.22266 13.7695V10.8887H17.2812Z" fill="#B70042"/>
<path d="M12.252 9.86328H10.6895C10.285 9.86328 9.95703 9.53535 9.95703 9.13086C9.95703 8.72637 10.285 8.39844 10.6895 8.39844H12.252C12.6564 8.39844 12.9844 8.72637 12.9844 9.13086C12.9844 9.53535 12.6564 9.86328 12.252 9.86328Z" fill="#B70042"/>
<path d="M12.252 13.3789H10.6895C10.285 13.3789 9.95703 13.051 9.95703 12.6465C9.95703 12.242 10.285 11.9141 10.6895 11.9141H12.252C12.6564 11.9141 12.9844 12.242 12.9844 12.6465C12.9844 13.051 12.6564 13.3789 12.252 13.3789Z" fill="#93003C"/>
</g>
<defs>
<filter id="filter0_d_1268_2309" x="0" y="0" width="33" height="33" filterUnits="userSpaceOnUse" color-interpolation-filters="sRGB">
<feFlood flood-opacity="0" result="BackgroundImageFix"/>
<feColorMatrix in="SourceAlpha" type="matrix" values="0 0 0 0 0 0 0 0 0 0 0 0 0 0 0 0 0 0 127 0" result="hardAlpha"/>
<feOffset dy="4"/>
<feGaussianBlur stdDeviation="2"/>
<feComposite in2="hardAlpha" operator="out"/>
<feColorMatrix type="matrix" values="0 0 0 0 0 0 0 0 0 0 0 0 0 0 0 0 0 0 0.25 0"/>
<feBlend mode="normal" in2="BackgroundImageFix" result="effect1_dropShadow_1268_2309"/>
<feBlend mode="normal" in="SourceGraphic" in2="effect1_dropShadow_1268_2309" result="shape"/>
</filter>
</defs>
</svg>
