<svg id="Capa_1" enable-background="new 0 0 512 512" height="512" viewBox="0 0 512 512" width="512" xmlns="http://www.w3.org/2000/svg"><g><g><circle cx="256" cy="256" fill="#ffe177" r="129.041"/></g><g><path d="m320.632 144.293c11.02 19.006 17.334 41.081 17.334 64.632 0 71.267-57.773 129.041-129.041 129.041-23.551 0-45.626-6.313-64.632-17.334 22.328 38.507 63.991 64.408 111.707 64.408 71.267 0 129.041-57.773 129.041-129.041 0-47.715-25.902-89.378-64.409-111.706z" fill="#ffd15b"/></g><g><path d="m256 24.976c-127.591 0-231.024 103.433-231.024 231.024h-17.866c-5.575 0-8.975 6.133-6.02 10.861l34.516 55.226c2.78 4.448 9.259 4.448 12.039 0l34.516-55.226c2.955-4.728-.444-10.861-6.02-10.861h-17.865c0-109.025 88.698-197.724 197.724-197.724 51.666 0 98.768 19.919 134.028 52.482 3.265 3.015 8.343 2.871 11.485-.271l11.845-11.845c3.343-3.343 3.231-8.792-.234-12.008-41.225-38.263-96.442-61.658-157.124-61.658z" fill="#9be69d"/></g><g><path d="m256 487.024c127.591 0 231.024-103.433 231.024-231.024h17.866c5.575 0 8.975-6.133 6.02-10.861l-34.516-55.226c-2.78-4.448-9.259-4.448-12.039 0l-34.516 55.226c-2.955 4.728.444 10.861 6.02 10.861h17.866c0 109.025-88.698 197.724-197.724 197.724-51.666 0-98.768-19.919-134.028-52.482-3.265-3.015-8.343-2.871-11.485.271l-11.845 11.845c-3.343 3.343-3.231 8.792.234 12.008 41.224 38.263 96.441 61.658 157.123 61.658z" fill="#6fd7a3"/></g><g fill="#fd8087"><path d="m209.724 220.986c-.025-.068-.053-.137-.08-.204-1.396-3.393-4.665-5.583-8.332-5.583-.004 0-.008 0-.011 0-3.671.004-6.94 2.203-8.329 5.602-.023.056-.045.111-.066.168l-25.009 65.663c-1.475 3.87.469 8.203 4.34 9.678 3.865 1.475 8.203-.468 9.678-4.339l4.389-11.523h29.828l4.341 11.502c1.133 3.003 3.987 4.854 7.018 4.854.88 0 1.775-.156 2.647-.485 3.875-1.462 5.831-5.789 4.368-9.665zm-17.708 44.461 9.269-24.338 9.185 24.338z"/><path d="m282.303 281.745h-15.821v-59.046c0-4.143-3.357-7.5-7.5-7.5s-7.5 3.357-7.5 7.5v66.546c0 4.143 3.357 7.5 7.5 7.5h23.321c4.143 0 7.5-3.357 7.5-7.5s-3.358-7.5-7.5-7.5z"/><path d="m337.095 281.745h-15.821v-59.046c0-4.143-3.357-7.5-7.5-7.5s-7.5 3.357-7.5 7.5v66.546c0 4.143 3.357 7.5 7.5 7.5h23.321c4.143 0 7.5-3.357 7.5-7.5s-3.358-7.5-7.5-7.5z"/></g></g></svg>