<?xml version="1.0" encoding="iso-8859-1"?>
<!-- Generator: Adobe Illustrator 19.0.0, SVG Export Plug-In . SVG Version: 6.00 Build 0)  -->
<svg version="1.1" id="Capa_1" xmlns="http://www.w3.org/2000/svg" xmlns:xlink="http://www.w3.org/1999/xlink" x="0px" y="0px"
	 viewBox="0 0 512 512" style="enable-background:new 0 0 512 512;" xml:space="preserve">
<g>
	<g>
		<rect y="21.94" width="120" height="316.72"/>
	</g>
</g>
<g>
	<g>
		<path d="M490.913,236.762c6.387-8.498,10.178-19.053,10.178-30.478c0-16.927-8.325-31.938-21.087-41.181
			c6.388-8.498,10.179-19.053,10.179-30.479c0-16.927-8.315-31.946-21.077-41.189c6.382-8.496,10.168-19.049,10.168-30.47
			c0-28.027-22.802-50.829-50.83-50.829H268.426c-26.357,0-52.233,4.692-76.908,13.945L150,41.651v262.49
			c48.654,52.353,93.186,102.323,101.206,115.159v58.999c0,11.891,9.673,21.565,21.564,21.565c49.039,0,88.936-39.897,88.936-88.936
			v-26.613l-16.08-55.543H461.17c28.027,0,50.83-22.802,50.83-50.829C512,261.016,503.675,246.005,490.913,236.762z"/>
	</g>
</g>
<g>
</g>
<g>
</g>
<g>
</g>
<g>
</g>
<g>
</g>
<g>
</g>
<g>
</g>
<g>
</g>
<g>
</g>
<g>
</g>
<g>
</g>
<g>
</g>
<g>
</g>
<g>
</g>
<g>
</g>
</svg>
