<svg height="512" viewBox="0 0 64 64" width="512" xmlns="http://www.w3.org/2000/svg"><g id="Layer_2" data-name="Layer 2"><path d="m56 5.533h-11a1.5 1.5 0 0 0 -1.261.692l-5.068-2.534a1.5 1.5 0 0 0 -.671-.158h-18.649a10.742 10.742 0 0 0 -10.062 6.867l-4.361 11.147a35.123 35.123 0 0 0 -2.428 12.863 6.129 6.129 0 0 0 6.122 6.122h14.138c-1.214 3.107-3.26 9.011-3.26 13.5 0 2.908 1.521 5.282 4.4 6.867a4.829 4.829 0 0 0 2.335.6 4.934 4.934 0 0 0 2.018-.437 4.786 4.786 0 0 0 2.739-3.323c2.108-9.261 9.876-15.258 13.195-17.449a1.491 1.491 0 0 0 .813.242h11a1.5 1.5 0 0 0 1.5-1.5v-32a1.5 1.5 0 0 0 -1.5-1.499zm-27.934 51.544a1.806 1.806 0 0 1 -1.042 1.252 1.858 1.858 0 0 1 -1.677-.058c-1.916-1.054-2.847-2.441-2.847-4.239 0-5.607 3.832-14.3 3.871-14.39a1.5 1.5 0 0 0 -1.371-2.11h-16.378a3.125 3.125 0 0 1 -3.122-3.122 32.155 32.155 0 0 1 2.221-11.77l4.361-11.147a7.762 7.762 0 0 1 7.269-4.96h18.3l5.683 2.842a1.61 1.61 0 0 0 .171.064v27.726c-2.916 1.752-12.835 8.462-15.439 19.912zm26.434-19.545h-8v-29h8z"/></g></svg>