<svg width="18" height="18" viewBox="0 0 18 18" fill="none" xmlns="http://www.w3.org/2000/svg">
<path d="M16.3145 2.16447C14.0712 -0.0789926 10.4207 -0.0789926 8.177 2.16447L1.20172 9.13971C-0.400663 10.7423 -0.400557 13.3498 1.20193 14.9522C2.00325 15.7536 3.05548 16.1542 4.10813 16.1541C5.16049 16.154 6.21328 15.7534 7.01446 14.9522L13.4083 8.55826C13.8741 8.09251 14.1306 7.47324 14.1307 6.81455C14.1307 6.15583 13.8742 5.53659 13.4084 5.07069C12.4468 4.10921 10.8822 4.10924 9.92079 5.07087L5.73948 9.25207C5.41847 9.57305 5.41847 10.0935 5.73941 10.4146C6.06039 10.7357 6.58088 10.7356 6.90192 10.4146L11.0833 6.23335C11.4038 5.91283 11.9252 5.91276 12.2458 6.23328C12.401 6.38853 12.4866 6.59496 12.4866 6.81452C12.4866 7.03407 12.4011 7.24043 12.2458 7.39575L5.85195 13.7897C4.89039 14.7511 3.32593 14.7513 2.36445 13.7898C1.40296 12.8282 1.40289 11.2637 2.36427 10.3021L9.33952 3.32698C10.9421 1.72442 13.5497 1.72442 15.152 3.32698C15.9284 4.10323 16.356 5.13538 16.356 6.23321C16.356 7.33103 15.9284 8.36318 15.152 9.1395L8.1769 16.1149C7.85592 16.4359 7.85592 16.9563 8.17697 17.2774C8.33749 17.4379 8.54787 17.5181 8.75821 17.5181C8.96858 17.5181 9.17896 17.4378 9.33948 17.2774L16.3145 10.3021C17.4014 9.21527 17.9999 7.77027 18 6.23324C18 4.69625 17.4014 3.25125 16.3145 2.16447Z" fill="#292929"/>
</svg>
