<svg width="31" height="31" viewBox="0 0 31 31" fill="none" xmlns="http://www.w3.org/2000/svg">
<path d="M16.0015 25.1096H14.5042C13.4497 25.1096 12.5928 25.9666 12.5928 27.021V29.0886C12.5928 30.143 13.4497 31 14.5042 31H16.0015C17.056 31 17.9129 30.143 17.9129 29.0886V27.021C17.9129 25.9634 17.056 25.1096 16.0015 25.1096Z" fill="#FCA120"/>
<path d="M5.44414 9.10472L8.20613 9.44877C9.0822 9.55709 9.91367 9.05375 10.2291 8.22865C10.6273 7.18693 11.1816 6.36502 11.892 5.76611C12.8987 4.91871 14.1506 4.49183 15.6479 4.49183C17.1994 4.49183 18.4354 4.8996 19.3529 5.71195C20.2704 6.52749 20.7259 7.50231 20.7259 8.64598C20.7259 9.46789 20.4679 10.2197 19.9518 10.9015C19.6173 11.3347 18.5883 12.2458 16.8712 13.638C15.151 15.0301 14.0073 16.2852 13.4339 17.4002C12.8477 18.5407 12.6438 19.8054 12.5929 21.0734C12.5483 22.1597 13.4148 23.0644 14.5043 23.0644H16.0653C17.0592 23.0644 17.8811 22.3031 17.9703 21.3155C18.034 20.6051 18.1519 20.0667 18.3303 19.7004C18.6298 19.0728 19.4039 18.2445 20.6463 17.2123C23.0515 15.2213 24.6188 13.6475 25.3548 12.4879C26.0875 11.3315 26.457 10.105 26.457 8.80845C26.457 6.46696 25.4599 4.41219 23.4625 2.64731C21.4682 0.882438 18.7795 0 15.4027 0C12.1915 0 9.6015 0.869695 7.62637 2.61227C5.94432 4.0968 4.92171 5.85531 4.56173 7.8846C4.4502 8.47714 4.85478 9.03145 5.44414 9.10472Z" fill="#FCA120"/>
</svg>
