<svg height="512pt" viewBox="-24 0 512 512.00013" width="512pt" xmlns="http://www.w3.org/2000/svg"><path d="m454.265625 107.609375-30.34375-4.410156-13.570313-27.496094c-4.578124-9.285156-17.828124-9.28125-22.410156 0l-13.570312 27.496094-30.34375 4.410156c-10.242188 1.488281-14.335938 14.085937-6.925782 21.3125l21.957032 21.402344-5.183594 30.222656c-1.753906 10.242187 9.007812 17.96875 18.132812 13.171875l27.140626-14.269531 27.140624 14.269531c9.15625 4.816406 19.878907-2.964844 18.128907-13.171875l-5.183594-30.222656 21.957031-21.402344c7.414063-7.226563 3.320313-19.824219-6.925781-21.3125zm-26.445313 32.894531c-2.945312 2.871094-4.285156 7.003906-3.59375 11.058594l4.550782 26.515625-23.816406-12.519531c-3.636719-1.914063-7.988282-1.914063-11.628907 0l-23.8125 12.519531 4.546875-26.519531c.695313-4.050782-.648437-8.183594-3.59375-11.054688l-19.265625-18.78125 26.625-3.867187c4.070313-.59375 7.585938-3.148438 9.40625-6.835938l11.90625-24.125 11.90625 24.125c1.820313 3.6875 5.339844 6.242188 9.410157 6.835938l26.625 3.867187zm0 0"/><path d="m55.183594 75.703125-13.570313 27.496094-30.34375 4.410156c-10.246093 1.488281-14.335937 14.085937-6.925781 21.3125l21.957031 21.402344-5.183593 30.21875c-1.757813 10.242187 9.007812 17.972656 18.128906 13.175781l27.144531-14.269531 27.140625 14.269531c9.15625 4.820312 19.878906-2.972656 18.128906-13.171875l-5.183594-30.222656 21.957032-21.402344c7.414062-7.226563 3.316406-19.828125-6.925782-21.316406l-30.34375-4.410157-13.570312-27.496093c-4.582031-9.28125-17.828125-9.277344-22.410156.003906zm23.113281 35.316406c1.820313 3.6875 5.339844 6.242188 9.410156 6.835938l26.621094 3.867187-19.261719 18.777344c-2.949218 2.875-4.292968 7.007812-3.597656 11.0625l4.546875 26.515625-23.8125-12.515625c-3.640625-1.914062-7.988281-1.917969-11.628906 0l-23.816407 12.519531 4.550782-26.515625c.695312-4.054687-.648438-8.1875-3.59375-11.0625l-19.265625-18.777344 26.621093-3.871093c4.070313-.589844 7.589844-3.144531 9.410157-6.835938l11.90625-24.125zm0 0"/><path d="m103.308594 478.097656c0 1.976563-1.605469 3.585938-3.582032 3.585938h-23.070312c-4.144531 0-7.5 3.355468-7.5 7.5 0 4.140625 3.355469 7.5 7.5 7.5h23.070312c9.15625 0 16.773438-6.667969 18.289063-15.398438l5.308594-.003906h.015625c26.183594 0 25.425781 30.722656 66.785156 30.71875h.070312 131.527344c15.949219 0 28.925782-12.976562 28.925782-28.925781 0-7.570313-2.921876-14.46875-7.699219-19.628907 7.019531-5.105468 11.714843-13.171874 12.019531-22.234374.246094-7.417969-2.273438-14.464844-7.113281-20 7.507812-5.066407 12.585937-13.433594 12.890625-22.875.273437-8.394532-2.984375-16.203126-8.910156-21.949219 20.625-17.269531 8.46875-51.089844-18.554688-51.089844-.003906 0-.015625 0-.019531 0h-83.9375c12.390625-37.832031 12.015625-34.761719 12.015625-79.125 0-18.113281-14.738282-32.851563-32.851563-32.851563-16.414062 0-30.414062 12.273438-32.5625 28.546876-5.390625 40.746093-11.90625 44.976562-40.1875 72.210937-7.707031 7.421875-17.847656 11.511719-28.546875 11.511719h-9.871094c-2.484374-7.339844-9.425781-12.644532-17.59375-12.644532h-81.140624c-10.25 0-18.585938 8.335938-18.585938 18.585938v146.570312c0 10.246094 8.335938 18.582032 18.585938 18.582032h23.066406c4.144531 0 7.5-3.355469 7.5-7.5 0-4.140625-3.355469-7.5-7.5-7.5h-23.066406c-1.976563 0-3.585938-1.605469-3.585938-3.582032v-146.574218c0-1.976563 1.609375-3.582032 3.585938-3.582032h81.140624c1.976563 0 3.582032 1.605469 3.582032 3.582032zm15-137.511718h8.878906c14.601562 0 28.4375-5.578126 38.953125-15.703126 29.871094-28.761718 38.65625-35.671874 44.652344-81.050781 1.167969-8.84375 8.773437-15.511719 17.695312-15.511719 9.839844 0 17.847657 8.007813 17.847657 17.847657 0 43.765625.757812 37.738281-12.921876 79.496093-2.359374 7.203126 3.019532 14.628907 10.601563 14.628907h89.25.011719c7.6875 0 13.941406 6.222656 13.949218 13.878906.003907 7.691406-6.25 13.957031-13.933593 13.960937-13.347657.011719 20.160156.007813-35.890625.007813-4.140625 0-7.5 3.359375-7.5 7.5 0 4.144531 3.359375 7.5 7.5 7.5h34.078125.019531.015625c8 0 14.496094 6.683594 14.234375 14.707031-.238281 7.417969-6.734375 13.457032-14.484375 13.457032-17.308594 0 5.210937.007812-33.863281.007812-4.140625 0-7.5 3.359375-7.5 7.5s3.359375 7.5 7.5 7.5c51.859375 0 9.636718-.007812 28.65625-.007812 7.796875 0 14.179687 6.425781 13.914062 14.40625-.246094 7.410156-6.742187 13.441406-14.476562 13.441406 0 0-.949219.007812-28.09375.007812-4.144532 0-7.5 3.359375-7.5 7.5 0 4.144532 3.355468 7.5 7.5 7.5h24.492187c7.597657.09375 13.75 6.296875 13.75 13.917969 0 7.675781-6.246093 13.921875-13.921875 13.921875h-131.53125c-.023437 0-.042968 0-.0625 0-34.859375 0-31.710937-30.71875-66.777344-30.71875-.011718 0-.023437 0-.03125 0l-5.011718.003906zm0 0"/><path d="m292.832031 104.511719c-2.964843 2.890625-3.023437 7.640625-.132812 10.605469 2.894531 2.96875 7.640625 3.027343 10.605469.136718l26.554687-25.882812c9.242187-9.011719 4.136719-24.71875-8.632813-26.574219l-51.171874-7.433594c-.1875-.027343-.351563-.144531-.433594-.316406l-22.882813-46.367187c-5.710937-11.574219-22.230469-11.570313-27.9375 0l-22.886719 46.367187c-.082031.171875-.246093.289063-.433593.316406l-51.171875 7.433594c-12.769532 1.859375-17.871094 17.566406-8.632813 26.574219l37.027344 36.089844c.136719.132812.199219.324218.167969.511718l-8.742188 50.964844c-2.191406 12.765625 11.226563 22.402344 22.601563 16.421875l45.769531-24.0625c.167969-.085937.367188-.089844.535156 0l45.769532 24.0625c11.417968 6.003906 24.785156-3.703125 22.601562-16.421875l-5.714844-33.316406c-.699218-4.085938-4.582031-6.832032-8.65625-6.128906-4.085937.703124-6.828125 4.578124-6.125 8.664062l5.714844 33.316406c.023438.148438.058594.355469-.230469.566406-.289062.207032-.472656.113282-.605469.042969l-45.769531-24.0625c-4.539062-2.386719-9.960937-2.386719-14.5 0l-45.769531 24.0625c-.132812.070313-.316406.164063-.605469-.042969-.289062-.210937-.253906-.417968-.230469-.566406l8.742188-50.960937c.867188-5.054688-.804688-10.210938-4.480469-13.789063l-37.027343-36.09375c-.105469-.105468-.257813-.25-.144532-.589844.109375-.34375.316406-.371093.464844-.394531l51.171875-7.433593c5.074219-.738282 9.457031-3.925782 11.730469-8.523438l22.882812-46.371094c.066406-.132812.160156-.320312.515625-.320312.359375 0 .449219.1875.519531.320312l22.882813 46.367188c2.269531 4.601562 6.652344 7.789062 11.730469 8.523437l51.171875 7.4375c.148437.019531.351562.050781.464843.390625.109376.34375-.039062.488282-.144531.59375zm0 0"/></svg>