<svg width="18" height="18" viewBox="0 0 18 18" fill="none" xmlns="http://www.w3.org/2000/svg">
<path d="M17.4937 0.506256C17.2687 0.281256 16.875 0.168756 16.5375 0.337506L0.7875 7.53751C0.45 7.70626 0.28125 7.98751 0.28125 8.32501C0.28125 8.66251 0.50625 8.94376 0.84375 9.11251L5.175 10.7438C5.56875 10.9125 6.075 10.8 6.35625 10.4625L7.14375 9.67501L9 7.81876C9.3375 7.48126 9.84375 7.48126 10.1813 7.81876C10.5188 8.15626 10.5188 8.66251 10.1813 9.00001L8.325 10.8563L7.5375 11.6438C7.2 11.9813 7.14375 12.4313 7.25625 12.825L8.8875 17.1563C9 17.4938 9.28125 17.7188 9.675 17.7188H9.73125C10.0687 17.7188 10.35 17.55 10.5188 17.2125L17.7188 1.46251C17.775 1.12501 17.7187 0.787506 17.4937 0.506256V0.506256Z" fill="#FCA120"/>
</svg>
