<svg id="Layer_1" enable-background="new 0 0 519.644 519.644" height="512" viewBox="0 0 519.644 519.644" width="512" xmlns="http://www.w3.org/2000/svg"><path d="m259.822 427.776c-97.26 0-190.384-71.556-251.854-145.843-10.623-12.839-10.623-31.476 0-44.314 15.455-18.678 47.843-54.713 91.108-86.206 108.972-79.319 212.309-79.472 321.492 0 50.828 36.997 91.108 85.512 91.108 86.206 10.623 12.838 10.623 31.475 0 44.313-61.461 74.278-154.572 145.844-251.854 145.844zm0-304c-107.744 0-201.142 102.751-227.2 134.243-.842 1.018-.842 2.496 0 3.514 26.059 31.492 119.456 134.243 227.2 134.243s201.142-102.751 227.2-134.243c1.519-1.837-.1-3.514 0-3.514-26.059-31.492-119.456-134.243-227.2-134.243z"/><path d="m259.822 371.776c-61.757 0-112-50.243-112-112s50.243-112 112-112 112 50.243 112 112-50.243 112-112 112zm0-192c-44.112 0-80 35.888-80 80s35.888 80 80 80 80-35.888 80-80-35.888-80-80-80z"/></svg>