<svg id="Capa_1" enable-background="new 0 0 512 512" height="512" viewBox="0 0 512 512" width="512" xmlns="http://www.w3.org/2000/svg"><g><path d="m436.193 169.626c-13.623-11.713-27.395-22.192-41.213-31.393l112.627-112.627c5.858-5.857 5.858-15.355 0-21.213-5.857-5.857-15.355-5.857-21.213 0l-117.85 117.85c-4.056-2.207-8.11-4.313-12.16-6.288-33.952-16.559-67.727-24.955-100.384-24.955s-66.432 8.396-100.384 24.955c-26.662 13.005-53.514 31.063-79.809 53.671-44.454 38.226-71.84 76.024-72.984 77.615-3.765 5.232-3.765 12.285 0 17.518 1.144 1.591 28.529 39.39 72.984 77.615 13.623 11.713 27.395 22.192 41.213 31.393l-112.626 112.627c-5.858 5.857-5.858 15.355 0 21.213 2.929 2.928 6.767 4.393 10.606 4.393s7.678-1.465 10.606-4.394l117.85-117.85c4.056 2.207 8.11 4.313 12.16 6.288 33.953 16.56 67.727 24.956 100.384 24.956s66.432-8.396 100.384-24.955c26.662-13.005 53.514-31.063 79.809-53.671 44.455-38.226 71.841-76.024 72.984-77.615 3.765-5.232 3.765-12.285 0-17.518-1.144-1.591-28.529-39.389-72.984-77.615zm-340.32 150.435c-29.579-25.355-51.503-51.023-61.931-64.056 25.008-31.203 116.18-135.005 222.058-135.005 32.122 0 62.847 9.736 90.261 23.526l-27.412 27.412c-17.534-13.144-39.298-20.938-62.849-20.938-57.897 0-105 47.103-105 105 0 23.551 7.794 45.315 20.938 62.849l-33.2 33.2c-16.122-10.296-30.592-21.467-42.865-31.988zm235.127-64.061c0 41.355-33.645 75-75 75-15.264 0-29.47-4.594-41.33-12.458l103.873-103.872c7.863 11.86 12.457 26.066 12.457 41.33zm-150 0c0-41.355 33.645-75 75-75 15.264 0 29.47 4.594 41.33 12.458l-103.872 103.872c-7.863-11.86-12.458-26.066-12.458-41.33zm75 135c-32.122 0-62.847-9.736-90.261-23.526l27.412-27.412c17.535 13.144 39.299 20.938 62.849 20.938 57.897 0 105-47.103 105-105 0-23.551-7.794-45.315-20.938-62.849l33.199-33.2c16.123 10.296 30.592 21.468 42.865 31.989 29.582 25.358 51.506 51.027 61.931 64.056-25.007 31.202-116.179 135.004-222.057 135.004z"/></g></svg>